<?xml version="1.0" encoding="utf-8"?>
<!-- Generator: Adobe Illustrator 18.0.0, SVG Export Plug-In . SVG Version: 6.00 Build 0)  -->
<!DOCTYPE svg PUBLIC "-//W3C//DTD SVG 1.1//EN" "http://www.w3.org/Graphics/SVG/1.1/DTD/svg11.dtd">
<svg version="1.1" id="Layer_1" xmlns="http://www.w3.org/2000/svg" xmlns:xlink="http://www.w3.org/1999/xlink" x="0px" y="0px"
	 viewBox="0 0 42 42" enable-background="new 0 0 42 42" xml:space="preserve">
<g>
	
		<rect x="27.7" y="13" transform="matrix(-0.7071 0.7071 -0.7071 -0.7071 57.9448 3.5058)" fill="#EEF8FD" width="1.2" height="1.4"/>
	
		<rect x="7.5" y="25.4" transform="matrix(0.7071 -0.7071 0.7071 0.7071 -13.8485 18.8663)" fill="#EEF8FD" width="16.6" height="1.4"/>
	<path fill="#EEF8FD" d="M28.5,17.3l-3.8-3.8c-3.1-2.6-6.2-4.3-8.2-4.3c-0.1,0-0.1,0-0.2,0l6.9,6.9l-1.7,1.7l2.7,2.7l1.7-1.7
		l6.9,6.9C33,24.1,31.6,20.9,28.5,17.3z"/>
	<path fill="#3D6480" d="M33.7,27.8c2.2-2.2-0.4-7.4-4-11.6l-0.2-0.2l2-2l-3.4-3.4l-2,2l-0.3-0.3c-3.5-3-7-4.7-9.3-4.7
		c-1,0-1.7,0.3-2.3,0.8l-0.6,0.6l7.2,7.2l-1.7,1.7l0.8,0.8L7.1,31.5l3.4,3.4L23.4,22l0.8,0.8l1.7-1.7l7.2,7.2L33.7,27.8z M25.9,18.8
		l-1.7,1.7l-2.7-2.7l1.7-1.7l-6.9-6.9c0.1,0,0.1,0,0.2,0c1.9,0,5.1,1.7,8.2,4.3l3.8,3.8c3.1,3.6,4.5,6.8,4.3,8.4L25.9,18.8z
		 M9.5,31.5l11.7-11.7l1,1L10.5,32.5L9.5,31.5z M29.2,13.9l-0.8,0.8l-1-1l0.8-0.8L29.2,13.9z"/>
</g>
</svg>
